<mxfile host="app.diagrams.net" modified="2023-06-21T23:35:49.291Z" agent="Mozilla/5.0 (Windows NT 10.0; Win64; x64) AppleWebKit/537.36 (KHTML, like Gecko) Chrome/113.0.0.0 Safari/537.36 Edg/113.0.1774.35" etag="BeB4PkWiS7wLjTx0EvSi" version="21.5.0" type="device">
  <diagram name="Page-1" id="BajBhMrA498XnWfkSq8C">
    <mxGraphModel dx="1434" dy="764" grid="1" gridSize="10" guides="1" tooltips="1" connect="1" arrows="1" fold="1" page="1" pageScale="1" pageWidth="850" pageHeight="1100" math="0" shadow="0">
      <root>
        <mxCell id="0" />
        <mxCell id="1" parent="0" />
        <mxCell id="WnhIYGRWOX-j_TyS0QTa-1" value="ASP .NET MVC" style="whiteSpace=wrap;html=1;aspect=fixed;" vertex="1" parent="1">
          <mxGeometry x="330" y="260" width="120" height="120" as="geometry" />
        </mxCell>
        <mxCell id="WnhIYGRWOX-j_TyS0QTa-2" value="Database" style="shape=cylinder3;whiteSpace=wrap;html=1;boundedLbl=1;backgroundOutline=1;size=15;" vertex="1" parent="1">
          <mxGeometry x="530" y="270" width="70" height="100" as="geometry" />
        </mxCell>
        <mxCell id="WnhIYGRWOX-j_TyS0QTa-3" value="Blob Storage" style="shape=process;whiteSpace=wrap;html=1;backgroundOutline=1;" vertex="1" parent="1">
          <mxGeometry x="330" y="110" width="120" height="60" as="geometry" />
        </mxCell>
        <mxCell id="WnhIYGRWOX-j_TyS0QTa-4" value="Web" style="ellipse;shape=cloud;whiteSpace=wrap;html=1;" vertex="1" parent="1">
          <mxGeometry x="110" y="280" width="120" height="80" as="geometry" />
        </mxCell>
        <mxCell id="WnhIYGRWOX-j_TyS0QTa-9" value="" style="endArrow=classic;startArrow=classic;html=1;rounded=0;exitX=0;exitY=0.5;exitDx=0;exitDy=0;exitPerimeter=0;entryX=1;entryY=0.5;entryDx=0;entryDy=0;" edge="1" parent="1" source="WnhIYGRWOX-j_TyS0QTa-2" target="WnhIYGRWOX-j_TyS0QTa-1">
          <mxGeometry width="50" height="50" relative="1" as="geometry">
            <mxPoint x="400" y="420" as="sourcePoint" />
            <mxPoint x="450" y="370" as="targetPoint" />
            <Array as="points" />
          </mxGeometry>
        </mxCell>
        <mxCell id="WnhIYGRWOX-j_TyS0QTa-10" value="" style="endArrow=classic;startArrow=classic;html=1;rounded=0;entryX=0.5;entryY=1;entryDx=0;entryDy=0;" edge="1" parent="1" target="WnhIYGRWOX-j_TyS0QTa-3">
          <mxGeometry width="50" height="50" relative="1" as="geometry">
            <mxPoint x="390" y="260" as="sourcePoint" />
            <mxPoint x="450" y="370" as="targetPoint" />
          </mxGeometry>
        </mxCell>
        <mxCell id="WnhIYGRWOX-j_TyS0QTa-11" value="" style="endArrow=classic;startArrow=classic;html=1;rounded=0;entryX=0;entryY=0.5;entryDx=0;entryDy=0;exitX=0.875;exitY=0.5;exitDx=0;exitDy=0;exitPerimeter=0;" edge="1" parent="1" source="WnhIYGRWOX-j_TyS0QTa-4" target="WnhIYGRWOX-j_TyS0QTa-1">
          <mxGeometry width="50" height="50" relative="1" as="geometry">
            <mxPoint x="400" y="420" as="sourcePoint" />
            <mxPoint x="450" y="370" as="targetPoint" />
          </mxGeometry>
        </mxCell>
      </root>
    </mxGraphModel>
  </diagram>
</mxfile>
